<svg xmlns="http://www.w3.org/2000/svg" width="521.2221069335938" height="458.6100769042969" viewBox="-197.6196746826172 -156.27142333984375 521.2221069335938 458.6100769042969"><title>Neo4j Graph Visualization</title><desc>Created using Neo4j (http://www.neo4j.com/)</desc><g class="layer relationships"><g class="relationship" transform="translate(144.5554018270679 171.17050606315095) rotate(198.14687455582703)"><path class="outline" fill="#333333" stroke="none" d="M 37.5 1.5 L 97.55626749926583 1.5 L 97.55626749926583 -1.5 L 37.5 -1.5 Z M 124.90392374926583 1.5 L 184.96019124853166 1.5 L 184.96019124853166 4.5 L 193.96019124853166 0 L 184.96019124853166 -4.5 L 184.96019124853166 -1.5 L 124.90392374926583 -1.5 Z"/><text text-anchor="middle" pointer-events="none" font-size="12px" fill="" x="111.23009562426583" y="5" transform="rotate(180 111.23009562426583 0)" font-family="sans-serif">has</text></g><g class="relationship" transform="translate(282.1023747966441 249.70439172555038) rotate(209.7246593055013)"><path class="outline" fill="#333333" stroke="none" d="M 37.5 1.5 L 61.020144136669245 1.5 L 61.020144136669245 -1.5 L 37.5 -1.5 Z M 88.36780038666924 1.5 L 111.88794452333849 1.5 L 111.88794452333849 4.5 L 120.88794452333849 0 L 111.88794452333849 -4.5 L 111.88794452333849 -1.5 L 88.36780038666924 -1.5 Z"/><text text-anchor="middle" pointer-events="none" font-size="12px" fill="" x="74.69397226166924" y="5" transform="rotate(180 74.69397226166924 0)" font-family="sans-serif">has</text></g><g class="relationship" transform="translate(144.5554018270679 171.17050606315095) rotate(203.93576693066416)"><path class="outline" fill="#333333" stroke="none" d="M 11.15460293077813 35.833989918186276 L 21.507364734878962 74.47102296974901 A 22.26606241341201 22.26606241341201 0 1 1 -21.507364734878962 74.47102296974901 L -13.483974336700818 44.5273223547879 L -7.688419378966408 46.08023662540302 L -9.705714191344528 36.22221848584006 L -16.38175181556802 43.75086521948034 L -10.586196857833613 45.30377949009546 L -18.609587256011757 75.24748010505658 A 19.26606241341201 19.26606241341201 0 1 0 18.609587256011757 75.24748010505658 L 8.256825451910926 36.61044705349384 Z"/><text text-anchor="middle" pointer-events="none" font-size="12px" fill="" x="0" y="115.49996639519344" transform="rotate(180 0 110.49996639519344)" font-family="sans-serif">has</text></g><g class="relationship" transform="translate(282.1023747966441 249.70439172555038) rotate(250.6238983356768)"><path class="outline" fill="#333333" stroke="none" d="M 37.5 1.5 L 138.18767283841566 1.5 L 138.18767283841566 -1.5 L 37.5 -1.5 Z M 165.53532908841566 1.5 L 266.22300192683133 1.5 L 266.22300192683133 4.5 L 275.22300192683133 0 L 266.22300192683133 -4.5 L 266.22300192683133 -1.5 L 165.53532908841566 -1.5 Z"/><text text-anchor="middle" pointer-events="none" font-size="12px" fill="" x="151.86150096341566" y="5" transform="rotate(180 151.86150096341566 0)" font-family="sans-serif">has</text></g><g class="relationship" transform="translate(178.35098982379048 -45.30633019882933) rotate(538.9523765671609)"><path class="outline" fill="#333333" stroke="none" d="M 37.5 1.5 L 113.57695100395861 1.5 L 113.57695100395861 -1.5 L 37.5 -1.5 Z M 169.6121072539586 1.5 L 245.68905825791722 1.5 L 245.68905825791722 4.5 L 254.68905825791722 0 L 245.68905825791722 -4.5 L 245.68905825791722 -1.5 L 169.6121072539586 -1.5 Z"/><text text-anchor="middle" pointer-events="none" font-size="12px" fill="" x="141.5945291289586" y="5" transform="rotate(180 141.5945291289586 0)" font-family="sans-serif">assigned</text></g><g class="relationship" transform="translate(178.35098982379048 -45.30633019882933) rotate(482.4489766139971)"><path class="outline" fill="#333333" stroke="none" d="M 37.5 1.5 L 50.90244225949613 1.5 L 50.90244225949613 -1.5 L 37.5 -1.5 Z M 92.24814538449613 1.5 L 105.65058764399225 1.5 L 105.65058764399225 4.5 L 114.65058764399225 0 L 105.65058764399225 -4.5 L 105.65058764399225 -1.5 L 92.24814538449613 -1.5 Z"/><text text-anchor="middle" pointer-events="none" font-size="12px" fill="" x="71.57529382199613" y="5" transform="rotate(180 71.57529382199613 0)" font-family="sans-serif">skilled</text></g><g class="relationship" transform="translate(178.35098982379048 -45.30633019882933) rotate(510.35880324868697)"><path class="outline" fill="#333333" stroke="none" d="M 37.5 1.5 L 123.46698208136391 1.5 L 123.46698208136391 -1.5 L 37.5 -1.5 Z M 159.4806539563639 1.5 L 245.44763603772782 1.5 L 245.44763603772782 4.5 L 254.44763603772782 0 L 245.44763603772782 -4.5 L 245.44763603772782 -1.5 L 159.4806539563639 -1.5 Z"/><text text-anchor="middle" pointer-events="none" font-size="12px" fill="" x="141.4738180188639" y="5" transform="rotate(180 141.4738180188639 0)" font-family="sans-serif">owns</text></g><g class="relationship" transform="translate(-75.39224753987261 99.08131359462459) rotate(354.69125420823764)"><path class="outline" fill="#333333" stroke="none" d="M 37.5 1.5 L 56.24749810022537 1.5 L 56.24749810022537 -1.5 L 37.5 -1.5 Z M 107.60101372522537 1.5 L 126.34851182545074 1.5 L 126.34851182545074 4.5 L 135.34851182545074 0 L 126.34851182545074 -4.5 L 126.34851182545074 -1.5 L 107.60101372522537 -1.5 Z"/><text text-anchor="middle" pointer-events="none" font-size="12px" fill="" x="81.92425591272537" y="5" font-family="sans-serif">requires</text></g><g class="relationship" transform="translate(-113.78922715868171 -39.96410340819227) rotate(339.7817454775328)"><path class="outline" fill="#333333" stroke="none" d="M 37.5 1.5 L 75.71147641860202 1.5 L 75.71147641860202 -1.5 L 37.5 -1.5 Z M 131.74663266860202 1.5 L 169.95810908720404 1.5 L 169.95810908720404 4.5 L 178.95810908720404 0 L 169.95810908720404 -4.5 L 169.95810908720404 -1.5 L 131.74663266860202 -1.5 Z"/><text text-anchor="middle" pointer-events="none" font-size="12px" fill="" x="103.72905454360202" y="5" font-family="sans-serif">assigned</text></g><g class="relationship" transform="translate(-113.78922715868171 -39.96410340819227) rotate(434.5626670867088)"><path class="outline" fill="#333333" stroke="none" d="M 37.5 1.5 L 46.620909232146076 1.5 L 46.620909232146076 -1.5 L 37.5 -1.5 Z M 88.62872173214608 1.5 L 97.74963096429215 1.5 L 97.74963096429215 4.5 L 106.74963096429215 0 L 97.74963096429215 -4.5 L 97.74963096429215 -1.5 L 88.62872173214608 -1.5 Z"/><text text-anchor="middle" pointer-events="none" font-size="12px" fill="" x="67.62481548214608" y="5" font-family="sans-serif">satisfy</text></g><g class="relationship" transform="translate(-75.39224753987261 99.08131359462459) rotate(475.4147286343562)"><path class="outline" fill="#333333" stroke="none" d="M 37.5 1.5 L 59.36755667391347 1.5 L 59.36755667391347 -1.5 L 37.5 -1.5 Z M 110.72107229891347 1.5 L 132.58862897282694 1.5 L 132.58862897282694 4.5 L 141.58862897282694 0 L 132.58862897282694 -4.5 L 132.58862897282694 -1.5 L 110.72107229891347 -1.5 Z"/><text text-anchor="middle" pointer-events="none" font-size="12px" fill="" x="85.04431448641347" y="5" transform="rotate(180 85.04431448641347 0)" font-family="sans-serif">requires</text></g><g class="relationship" transform="translate(282.1023747966441 249.70439172555038) rotate(183.02780250541167)"><path class="outline" fill="#333333" stroke="none" d="M 37.5 1.5 L 99.70563649826619 1.5 L 99.70563649826619 -1.5 L 37.5 -1.5 Z M 127.05329274826619 1.5 L 189.25892924653238 1.5 L 189.25892924653238 4.5 L 198.25892924653238 0 L 189.25892924653238 -4.5 L 189.25892924653238 -1.5 L 127.05329274826619 -1.5 Z"/><text text-anchor="middle" pointer-events="none" font-size="12px" fill="" x="113.37946462326619" y="5" transform="rotate(180 113.37946462326619 0)" font-family="sans-serif">has</text></g><g class="relationship" transform="translate(-75.39224753987261 99.08131359462459) rotate(408.54139062844587)"><path class="outline" fill="#333333" stroke="none" d="M 37.5 1.5 L 66.67908042889661 1.5 L 66.67908042889661 -1.5 L 37.5 -1.5 Z M 108.68689292889661 1.5 L 137.86597335779322 1.5 L 137.86597335779322 4.5 L 146.86597335779322 0 L 137.86597335779322 -4.5 L 137.86597335779322 -1.5 L 108.68689292889661 -1.5 Z"/><text text-anchor="middle" pointer-events="none" font-size="12px" fill="" x="87.68298667889661" y="5" font-family="sans-serif">satisfy</text></g><g class="relationship" transform="translate(-75.39224753987261 99.08131359462459) rotate(431.7973747851404)"><path class="outline" fill="#333333" stroke="none" d="M 11.15460293077813 35.833989918186276 L 21.507364734878962 74.47102296974901 A 22.26606241341201 22.26606241341201 0 1 1 -21.507364734878962 74.47102296974901 L -13.483974336700818 44.5273223547879 L -7.688419378966408 46.08023662540302 L -9.705714191344528 36.22221848584006 L -16.38175181556802 43.75086521948034 L -10.586196857833613 45.30377949009546 L -18.609587256011757 75.24748010505658 A 19.26606241341201 19.26606241341201 0 1 0 18.609587256011757 75.24748010505658 L 8.256825451910926 36.61044705349384 Z"/><text text-anchor="middle" pointer-events="none" font-size="12px" fill="" x="0" y="115.49996639519344" font-family="sans-serif">depends</text></g><g class="relationship" transform="translate(-75.39224753987261 99.08131359462459) rotate(478.18002093592463)"><path class="outline" fill="#333333" stroke="none" d="M 11.15460293077813 35.833989918186276 L 21.507364734878962 74.47102296974901 A 22.26606241341201 22.26606241341201 0 1 1 -21.507364734878962 74.47102296974901 L -13.483974336700818 44.5273223547879 L -7.688419378966408 46.08023662540302 L -9.705714191344528 36.22221848584006 L -16.38175181556802 43.75086521948034 L -10.586196857833613 45.30377949009546 L -18.609587256011757 75.24748010505658 A 19.26606241341201 19.26606241341201 0 1 0 18.609587256011757 75.24748010505658 L 8.256825451910926 36.61044705349384 Z"/><text text-anchor="middle" pointer-events="none" font-size="12px" fill="" x="0" y="115.49996639519344" transform="rotate(180 0 110.49996639519344)" font-family="sans-serif">fork</text></g></g><g class="layer nodes"><g class="node" transform="translate(144.5554018270679,171.17050606315095)"><circle class="outline" cx="0" cy="0" r="37.5" fill="#FF756E" stroke="#E06760" stroke-width="2px"/><text text-anchor="middle" pointer-events="none" y="6" font-size="12px" fill="#FFFFFF" font-family="sans-serif"> project</text></g><g class="node" transform="translate(178.35098982379048,-45.30633019882933)"><circle class="outline" cx="0" cy="0" r="37.5" fill="#FF756E" stroke="#E06760" stroke-width="2px"/><text text-anchor="middle" pointer-events="none" y="6" font-size="12px" fill="#FFFFFF" font-family="sans-serif"> person</text></g><g class="node" transform="translate(96.71484561009169,83.08892391257598)"><circle class="outline" cx="0" cy="0" r="37.5" fill="#FF756E" stroke="#E06760" stroke-width="2px"/><text text-anchor="middle" pointer-events="none" y="6" font-size="12px" fill="#FFFFFF" font-family="sans-serif"> job</text></g><g class="node" transform="translate(-113.78922715868171,-39.96410340819227)"><circle class="outline" cx="0" cy="0" r="37.5" fill="#FF756E" stroke="#E06760" stroke-width="2px"/><text text-anchor="middle" pointer-events="none" y="6" font-size="12px" fill="#FFFFFF" font-family="sans-serif"> task</text></g><g class="node" transform="translate(-152.25123688854745,260.8386404261074)"><circle class="outline" cx="0" cy="0" r="37.5" fill="#FF756E" stroke="#E06760" stroke-width="2px"/><text text-anchor="middle" pointer-events="none" y="6" font-size="12px" fill="#FFFFFF" font-family="sans-serif"> asset</text></g><g class="node" transform="translate(46.672559967562506,237.25148005735753)"><circle class="outline" cx="0" cy="0" r="37.5" fill="#FF756E" stroke="#E06760" stroke-width="2px"/><text text-anchor="middle" pointer-events="none" y="6" font-size="12px" fill="#FFFFFF" font-family="sans-serif"> objective</text></g><g class="node" transform="translate(282.1023747966441,249.70439172555038)"><circle class="outline" cx="0" cy="0" r="37.5" fill="#FF756E" stroke="#E06760" stroke-width="2px"/><text text-anchor="middle" pointer-events="none" y="6" font-size="12px" fill="#FFFFFF" font-family="sans-serif"> organization</text></g><g class="node" transform="translate(89.33137452502548,-114.7714169627952)"><circle class="outline" cx="0" cy="0" r="37.5" fill="#FF756E" stroke="#E06760" stroke-width="2px"/><text text-anchor="middle" pointer-events="none" y="6" font-size="12px" fill="#FFFFFF" font-family="sans-serif"> sprint</text></g><g class="node" transform="translate(-75.39224753987261,99.08131359462459)"><circle class="outline" cx="0" cy="0" r="37.5" fill="#FF756E" stroke="#E06760" stroke-width="2px"/><text text-anchor="middle" pointer-events="none" y="6" font-size="12px" fill="#FFFFFF" font-family="sans-serif"> flow</text></g></g></svg>